<svg width="38" height="44" viewBox="0 0 38 44" fill="none" xmlns="http://www.w3.org/2000/svg">
<path d="M37.5679 18.784C37.5679 26.0309 33.464 32.3193 27.4535 35.452C25.3281 36.5597 21.8345 38.2432 19.8473 42.7906C19.5311 43.5142 18.0369 43.5142 17.7206 42.7906C15.7334 38.2432 12.2399 36.5597 10.1144 35.452C4.10389 32.3193 0 26.0309 0 18.784C0 8.40987 8.40987 0 18.784 0C29.1581 0 37.5679 8.40987 37.5679 18.784Z" fill="#33D87D" style="fill:#33D87D;fill:color(display-p3 0.2000 0.8471 0.4902);fill-opacity:1;"/>
<path d="M18.7842 0.833008C28.6979 0.833125 36.7344 8.87039 36.7344 18.7842C36.7343 25.7083 32.8143 31.7181 27.0684 34.7129C24.9492 35.8174 21.2144 37.6088 19.0967 42.4268C19.0908 42.4308 19.0822 42.4382 19.0674 42.4453C19.0071 42.4741 18.9066 42.5 18.7842 42.5C18.6616 42.5 18.5613 42.4741 18.501 42.4453C18.4857 42.438 18.4766 42.4308 18.4707 42.4268C16.3531 37.6091 12.6191 35.8174 10.5 34.7129C4.75407 31.7181 0.83309 25.7083 0.833008 18.7842C0.833008 8.87032 8.87032 0.833008 18.7842 0.833008Z" stroke="black" stroke-opacity="0.08" style="stroke:black;stroke-opacity:0.08;" stroke-width="1.66667"/>
<circle cx="18.333" cy="18.3333" r="10" fill="white" style="fill:white;fill-opacity:1;"/>
</svg>
